# xmcd
#
# Track frame offsets:
#	150
#	21288
#	37928
#
# Disc length: 2645 seconds
#
# Revision: 0
# Processed by: cddbd v1.5.2PL0 Copyright (c) Steve Scherf et al.
# Submitted via: dBpowerAMP V4.0
#
DISCID=190a5303
DTITLE=Daniel Virin - Créole
DYEAR=1900
DGENRE=
TTITLE0=DATA
TTITLE1=DATA
TTITLE2=DATA
EXTD=
EXTT0=
EXTT1=
EXTT2=
PLAYORDER=
